<svg width="202" height="51" viewBox="0 0 202 51" fill="none" xmlns="http://www.w3.org/2000/svg">
<g clip-path="url(#clip0_3156_6034)">
<g clip-path="url(#clip1_3156_6034)">
<path d="M0 0.170898L49.9872 0.128518L50.0296 50.1157L0.04238 50.1581L0 0.170898Z" fill="white"/>
<path fill-rule="evenodd" clip-rule="evenodd" d="M17.0801 31.3126C19.2727 30.568 20.8495 28.4914 20.8474 26.0474C20.8448 22.9799 18.356 20.4953 15.2885 20.4979C12.221 20.5005 9.73636 22.9893 9.73896 26.0568C9.74102 28.4853 11.3014 30.5485 13.4736 31.3014L10.1405 37.8226C9.9182 38.2575 10.2343 38.7735 10.7227 38.7731L19.8364 38.7654C20.3247 38.765 20.64 38.2484 20.417 37.8139L17.0801 31.3126Z" fill="#CCCCCC"/>
<path fill-rule="evenodd" clip-rule="evenodd" d="M36.8611 31.296C39.0536 30.5515 40.6305 28.4748 40.6284 26.0308C40.6258 22.9633 38.137 20.4787 35.0695 20.4813C32.002 20.4839 29.5174 22.9727 29.52 26.0402C29.522 28.4686 31.0822 30.5317 33.2542 31.2847L29.9212 37.8057C29.699 38.2406 30.0151 38.7567 30.5034 38.7563L39.6171 38.7485C40.1055 38.7481 40.4207 38.2315 40.1977 37.797L36.8611 31.296Z" fill="#CCCCCC"/>
<mask id="path-6-outside-1_3156_6034" maskUnits="userSpaceOnUse" x="16.3884" y="16.8037" width="17.022" height="26.0144" fill="white">
<rect fill="white" x="16.3884" y="16.8037" width="17.022" height="26.0144"/>
<path fill-rule="evenodd" clip-rule="evenodd" d="M26.9994 31.739C29.6859 30.8982 31.6343 28.3887 31.6318 25.4252C31.6287 21.7753 28.6673 18.8189 25.0174 18.822C21.3674 18.8251 18.411 21.7865 18.4141 25.4364C18.4167 28.5027 20.5071 31.0794 23.3395 31.8233L20.0222 39.6061C19.8384 40.0372 20.155 40.5159 20.6237 40.5155L29.7648 40.5078C30.2334 40.5074 30.5492 40.0282 30.3647 39.5974L26.9994 31.739Z"/>
</mask>
<path fill-rule="evenodd" clip-rule="evenodd" d="M26.9994 31.739C29.6859 30.8982 31.6343 28.3887 31.6318 25.4252C31.6287 21.7753 28.6673 18.8189 25.0174 18.822C21.3674 18.8251 18.411 21.7865 18.4141 25.4364C18.4167 28.5027 20.5071 31.0794 23.3395 31.8233L20.0222 39.6061C19.8384 40.0372 20.155 40.5159 20.6237 40.5155L29.7648 40.5078C30.2334 40.5074 30.5492 40.0282 30.3647 39.5974L26.9994 31.739Z" fill="white"/>
<path d="M26.9994 31.739L26.5603 30.3359L25.0074 30.822L25.6479 32.3178L26.9994 31.739ZM23.3395 31.8233L24.692 32.3998L25.3595 30.8338L23.713 30.4013L23.3395 31.8233ZM20.0222 39.6061L18.6697 39.0296L18.6697 39.0296L20.0222 39.6061ZM20.6237 40.5155L20.6249 41.9857L20.6237 40.5155ZM29.7648 40.5078L29.7635 39.0375L29.7648 40.5078ZM30.3647 39.5974L31.7162 39.0186L31.7162 39.0186L30.3647 39.5974ZM30.1616 25.4265C30.1635 27.7284 28.6504 29.6817 26.5603 30.3359L27.4386 33.1421C30.7214 32.1146 33.1051 29.0489 33.102 25.424L30.1616 25.4265ZM25.0186 20.2922C27.8566 20.2898 30.1592 22.5885 30.1616 25.4265L33.102 25.424C33.0982 20.962 29.478 17.348 25.0161 17.3518L25.0186 20.2922ZM19.8844 25.4352C19.8819 22.5972 22.1806 20.2946 25.0186 20.2922L25.0161 17.3518C20.5542 17.3556 16.9401 20.9757 16.9439 25.4377L19.8844 25.4352ZM23.713 30.4013C21.5102 29.8228 19.8864 27.8172 19.8844 25.4352L16.9439 25.4377C16.9471 29.1881 19.5039 32.336 22.966 33.2453L23.713 30.4013ZM21.3747 40.1826L24.692 32.3998L21.987 31.2468L18.6697 39.0296L21.3747 40.1826ZM20.6224 39.0453C21.2086 39.0448 21.6045 39.6434 21.3747 40.1826L18.6697 39.0296C18.0724 40.4311 19.1015 41.987 20.6249 41.9857L20.6224 39.0453ZM29.7635 39.0375L20.6224 39.0453L20.6249 41.9857L29.766 41.978L29.7635 39.0375ZM29.0132 40.1761C28.7825 39.6373 29.1774 39.038 29.7635 39.0375L29.766 41.978C31.2894 41.9767 32.3159 40.419 31.7162 39.0186L29.0132 40.1761ZM25.6479 32.3178L29.0132 40.1761L31.7162 39.0186L28.3509 31.1603L25.6479 32.3178Z" fill="white" mask="url(#path-6-outside-1_3156_6034)"/>
<rect y="0.170898" width="49.9872" height="12.8333" transform="rotate(-0.0485763 0 0.170898)" fill="#007AFE"/>
</g>
</g>
<rect x="0.600543" y="0.770424" width="48.7872" height="48.7872" rx="10.6471" transform="rotate(-0.0485763 0.600543 0.770424)" stroke="#F2F2F7" stroke-width="1.20007"/>
<path d="M76.4419 41.6175C73.2663 41.6202 70.5237 40.9315 68.2143 39.5515C65.9196 38.1714 64.1464 36.2396 62.8946 33.756C61.6575 31.2724 61.0376 28.3839 61.0348 25.0907C61.032 21.7974 61.647 18.9079 62.8799 16.4222C64.1275 13.9365 65.8974 12.0016 68.1898 10.6177C70.4969 9.23375 73.2382 8.54042 76.4139 8.53773C79.5895 8.53504 82.3247 9.22372 84.6194 10.6038C86.9288 11.9838 88.7021 13.9156 89.9391 16.3993C91.1909 18.8829 91.8182 21.7713 91.821 25.0646C91.8238 28.3578 91.2014 31.2473 89.9538 33.7331C88.721 36.2188 86.951 38.1536 84.6439 39.5375C82.3516 40.9215 79.6176 41.6148 76.4419 41.6175ZM76.4371 35.9719C78.4513 35.9996 80.127 35.5645 81.4642 34.6665C82.8013 33.7685 83.8 32.4959 84.4602 30.8487C85.1351 29.2015 85.4716 27.2753 85.4697 25.0699C85.4678 22.8646 85.1281 20.9536 84.4504 19.337C83.7874 17.7203 82.7866 16.4641 81.448 15.5684C80.1093 14.6727 78.4329 14.211 76.4187 14.1833C74.4044 14.1556 72.7288 14.5908 71.3916 15.4887C70.0545 16.3867 69.0485 17.6593 68.3736 19.3065C67.7134 20.9537 67.3842 22.88 67.3861 25.0853C67.388 27.2906 67.7204 29.2016 68.3833 30.8183C69.061 32.4349 70.0692 33.6911 71.4078 34.5868C72.7465 35.4825 74.4229 35.9442 76.4371 35.9719Z" fill="white"/>
<path d="M104.221 41.6381C102.354 41.6396 100.832 41.3248 99.6549 40.6936C98.4782 40.0624 97.5586 39.262 96.8962 38.2922C96.2485 37.3224 95.7845 36.3157 95.5043 35.2721C95.224 34.2138 95.0542 33.2509 94.9946 32.3835C94.9351 31.5162 94.9051 30.884 94.9048 30.487L94.8935 17.1228L100.98 17.1176L100.99 28.3648C100.99 28.9087 101.02 29.6071 101.08 30.4597C101.139 31.2977 101.324 32.1429 101.633 32.9954C101.943 33.8479 102.443 34.5605 103.135 35.1333C103.841 35.7061 104.833 35.9919 106.112 35.9908C106.627 35.9904 107.178 35.9091 107.766 35.7468C108.354 35.5846 108.905 35.2754 109.419 34.8192C109.934 34.3483 110.352 33.6643 110.675 32.7672C111.012 31.8554 111.18 30.6644 111.179 29.1942L114.621 30.8232C114.622 32.705 114.241 34.4696 113.478 36.1169C112.715 37.7642 111.562 39.0957 110.019 40.1115C108.491 41.1272 106.558 41.6361 104.221 41.6381ZM111.939 40.9258L111.932 33.0308L111.182 33.0314L111.169 17.109L117.211 17.1039L117.231 40.9213L111.939 40.9258Z" fill="white"/>
<path d="M121.19 40.918L121.169 17.1005L126.462 17.096L126.467 22.9181L125.893 22.1688C126.201 21.3452 126.612 20.595 127.126 19.9183C127.64 19.2416 128.272 18.6823 129.021 18.2406C129.594 17.8873 130.219 17.6148 130.895 17.4231C131.571 17.2167 132.27 17.0911 132.99 17.0464C133.71 16.987 134.431 17.0011 135.151 17.0887L135.156 22.6902C134.494 22.4849 133.722 22.4194 132.84 22.4937C131.973 22.5532 131.186 22.7524 130.481 23.0911C129.776 23.4152 129.181 23.8494 128.696 24.3938C128.211 24.9234 127.844 25.5559 127.595 26.2913C127.345 27.0119 127.221 27.828 127.222 28.7395L127.232 40.9128L121.19 40.918Z" fill="white"/>
<path d="M153.437 41.5522C150.261 41.5549 147.519 40.8662 145.209 39.4862C142.915 38.1061 141.141 36.1743 139.889 33.6907C138.652 31.2071 138.032 28.3187 138.03 25.0254C138.027 21.7321 138.642 18.8426 139.875 16.3569C141.122 13.8712 142.892 11.9364 145.185 10.5524C147.492 9.16847 150.233 8.47515 153.409 8.47245C157.055 8.46936 160.114 9.37095 162.585 11.1772C165.071 12.9835 166.823 15.4299 167.84 18.5165L161.799 20.1976C161.209 18.2722 160.216 16.7807 158.818 15.7234C157.42 14.6513 155.619 14.1162 153.414 14.1181C151.399 14.1198 149.716 14.5696 148.365 15.4676C147.027 16.3656 146.021 17.6308 145.346 19.2633C144.672 20.8958 144.335 22.8147 144.337 25.02C144.339 27.2254 144.679 29.1437 145.356 30.7751C146.034 32.4064 147.042 33.6699 148.381 34.5656C149.734 35.4613 151.418 35.9083 153.432 35.9066C155.637 35.9047 157.438 35.3666 158.834 34.2921C160.229 33.2177 161.221 31.7246 161.807 29.8128L167.851 31.4837C166.839 34.572 165.092 37.0214 162.609 38.8319C160.14 40.6424 157.083 41.5491 153.437 41.5522Z" fill="white"/>
<path d="M178.449 41.531C176.744 41.5325 175.295 41.2102 174.104 40.5644C172.927 39.9038 172.03 39.0297 171.411 37.9423C170.808 36.8402 170.505 35.6275 170.504 34.3043C170.503 33.2016 170.671 32.1944 171.009 31.2826C171.346 30.3708 171.889 29.569 172.639 28.8774C173.402 28.1711 174.424 27.5821 175.702 27.1106C176.584 26.7864 177.635 26.4988 178.855 26.2478C180.075 25.9968 181.457 25.7604 183.001 25.5386C184.544 25.302 186.242 25.0433 188.094 24.7624L185.934 25.9551C185.933 24.5437 185.594 23.5075 184.917 22.8465C184.24 22.1855 183.108 21.8556 181.52 21.857C180.638 21.8577 179.719 22.0717 178.764 22.4988C177.809 22.926 177.14 23.6837 176.759 24.772L171.332 23.0565C171.934 21.0859 173.064 19.4824 174.725 18.246C176.385 17.0096 178.648 16.3902 181.515 16.3878C183.618 16.386 185.485 16.7079 187.118 17.3534C188.75 17.9989 189.986 19.1152 190.825 20.7023C191.297 21.584 191.577 22.4659 191.666 23.348C191.755 24.23 191.8 25.215 191.801 26.303L191.813 40.8581L186.564 40.8625L186.56 35.9667L187.311 36.9805C186.151 38.5841 184.895 39.7466 183.543 40.4681C182.205 41.175 180.508 41.5293 178.449 41.531ZM179.724 36.8106C180.827 36.8096 181.753 36.6177 182.503 36.2348C183.267 35.8372 183.869 35.3883 184.31 34.888C184.765 34.3878 185.073 33.9685 185.235 33.6302C185.543 32.9831 185.719 32.2331 185.762 31.3803C185.82 30.5129 185.849 29.7924 185.849 29.2191L187.613 29.6586C185.835 29.9542 184.394 30.2053 183.292 30.4121C182.189 30.6042 181.3 30.7813 180.624 30.9436C179.947 31.1059 179.352 31.2829 178.838 31.4744C178.25 31.7102 177.772 31.9679 177.405 32.2475C177.052 32.5124 176.788 32.8067 176.612 33.1303C176.45 33.4539 176.37 33.8142 176.37 34.2111C176.371 34.7551 176.503 35.2255 176.768 35.6222C177.048 36.0042 177.438 36.2979 177.938 36.5033C178.438 36.7087 179.033 36.8111 179.724 36.8106Z" fill="white"/>
<path d="M195.783 40.8547L195.755 8.43655L201.754 8.43147L201.781 40.8496L195.783 40.8547Z" fill="white"/>
<defs>
<clipPath id="clip0_3156_6034">
<rect y="0.170898" width="49.9872" height="49.9872" rx="11.2471" transform="rotate(-0.0485763 0 0.170898)" fill="white"/>
</clipPath>
<clipPath id="clip1_3156_6034">
<path d="M0 0.170898L49.9872 0.128518L50.0296 50.1157L0.04238 50.1581L0 0.170898Z" fill="white"/>
</clipPath>
</defs>
</svg>
