<svg xmlns="http://www.w3.org/2000/svg" width="128" height="28.83" viewBox="0 0 128 28.83">
  <path d="M261.8,72.18a6,6,0,0,0-4.37-1.5c-3.56,0-4.78,1.81-5.31,2.56V71.09H246v4.19a7.85,7.85,0,0,0-1.72-2.54,9.81,9.81,0,0,0-6.77-2.34c-4.3,0-7.37,1.86-8.74,4.9V71.09h-5.55l0,1.52a3.49,3.49,0,0,0-.56-.65,5.4,5.4,0,0,0-3.9-1.31c-4.8,0-6.73,2.81-7.36,5.6a7.53,7.53,0,0,0-2-3.42,9.23,9.23,0,0,0-6.49-2.4,8.71,8.71,0,0,0-7.27,3.35l.81-2.69h-6.59l-1.37,7a36.55,36.55,0,0,0-.53,4.22,55.19,55.19,0,0,0-.87-5.5L186,71.09h-5.52l-1.19,5.83a49.33,49.33,0,0,0-.78,5.34c-.25-2.25-.31-2.72-.75-5.09l-1.24-6.08h-6.56l1.34,4.44c-1.87-1.56-4.83-2.09-7.81-2.6-1.91-.35-3-.63-3-1.69s1.31-1.43,2.49-1.43a9.93,9.93,0,0,1,4.09.81,4.63,4.63,0,0,1,1.69,1.43L173,68.4a10.43,10.43,0,0,0-3.24-2.49,15,15,0,0,0-6.65-1.41c-4,0-7.67,1.28-9.11,4.53a6.91,6.91,0,0,0-.62,2.84c0,4.64,4,5.89,6,6.42.91.22,5,.94,5.74,1.22,1.22.41,1.22,1.22,1.22,1.37,0,1.59-2.75,1.66-3.31,1.66A10,10,0,0,1,160,82a4.9,4.9,0,0,1-3.06-2.41l-5.33,3.44a11.44,11.44,0,0,0,6.11,4.18,18.31,18.31,0,0,0,5.12.65c1.22,0,5.65,0,8.43-2.84a6.93,6.93,0,0,0,1.82-3.51l1.72,5.7h6.4l1.49-7.18a19.47,19.47,0,0,0,.5-4.09,28.65,28.65,0,0,0,.66,4.81l1.43,6.46h6.4l2.41-8.07c0,4.47,3,8.72,8.93,8.72a9.6,9.6,0,0,0,8.58-4.43l-5.31-2.21a3.1,3.1,0,0,1-2.93,2.09,2.64,2.64,0,0,1-1.94-.75,3.16,3.16,0,0,1-.78-2.28h10.72a6.71,6.71,0,0,0,7.14,6.12c2.72,0,3.68-1,3.84-1.16a5.43,5.43,0,0,0,.38-.5c0,.5,0,1,0,1.53a3.22,3.22,0,0,1-.62,2.5,3.72,3.72,0,0,1-2.4.71c-2.5,0-2.53-1.34-2.53-2h-5.83c.06,1.71.12,4.11,3.24,5.21a18.89,18.89,0,0,0,5.09.65,14.57,14.57,0,0,0,5.89-1.06c3.12-1.47,3.25-4.09,3.31-6V83.17c1.22,2.68,3.9,4.7,8.4,4.7s7.46-1.86,8.83-4.8v4.18h6.43V78.64c0-.88.06-2.66,2.34-2.66S257,77.61,257,78.42v8.83h6.43V77A6.66,6.66,0,0,0,261.8,72.18Zm-61.11,4.74a2.49,2.49,0,0,1,2.43-2.4,2.16,2.16,0,0,1,2.15,1.65,4.82,4.82,0,0,1,.1.75Zm19.17,5.27c-1.72,0-2.53-1-2.53-3.37,0-.62,0-3.74,2.68-3.74,2.5,0,2.5,2.59,2.5,3.46C222.51,79.76,222.45,82.19,219.86,82.19Zm17.53,1.19c-2.62,0-3-2.72-3-4.28,0-1.81.53-4.11,3-4.18,2.94-.09,3,3.15,3,4.12C240.36,81.48,239.64,83.38,237.39,83.38Z" transform="translate(-151.58 -64.5)" fill="#0064b3"/>
  <path d="M279.1,64.92s-7.36-.43-10.09,4.18a12.28,12.28,0,0,0-1.35,9.57,50,50,0,0,1,5.14-7.32A83.62,83.62,0,0,1,279.1,64.92Z" transform="translate(-151.58 -64.5)" fill="#8ac21c"/>
  <path d="M267.66,78.67a50,50,0,0,1,5.14-7.32,83.62,83.62,0,0,1,6.3-6.43s1.85,6.22-1.72,10.35S267.66,78.67,267.66,78.67Z" transform="translate(-151.58 -64.5)" fill="#008542"/>
</svg>
