<svg fill="#990AE3" viewBox="0 0 82 32" xmlns="http://www.w3.org/2000/svg"><g clip-path="url(#clip0_5309_7721)"><path d="M48.5521 11.2967H43.6146V25.2056H40.4819V11.2967H35.4976V8.5907H48.5521V11.2967Z"></path><path d="M57.9512 20.1028H49.1931C49.5013 21.8596 50.76 23.0222 52.3738 23.0222C53.5844 23.0222 54.5572 22.4761 55.1513 21.5748L57.4776 22.9753C56.2904 24.5656 54.3449 25.5149 52.3748 25.5149C49.1238 25.5149 46.2993 22.9283 46.2993 19.225C46.2993 15.5216 49.1003 12.9596 52.233 12.9596C56.3374 12.9585 58.3544 16.2342 57.9512 20.1028ZM49.288 17.8949H55.1268C54.7705 16.3525 53.7743 15.3787 52.2309 15.3787C50.7834 15.3798 49.6912 16.376 49.288 17.8949Z"></path><path d="M64.1695 25.2525C63.7183 25.3475 63.2437 25.3709 62.817 25.3709C60.7286 25.3709 59.8027 24.3736 59.8027 22.3566V8.5907H62.7221V21.9535C62.7221 22.9742 63.3397 23.1161 64.1695 23.0212V25.2525Z"></path><path d="M65.6885 9.96763C65.6885 9.04179 66.4959 8.28235 67.4207 8.28235C68.3231 8.28235 69.1294 9.04179 69.1294 9.96763C69.1294 10.8935 68.322 11.6529 67.4207 11.6529C66.4959 11.6529 65.6885 10.8935 65.6885 9.96763ZM65.9498 25.2055V13.3382H68.8692V25.2055H65.9498Z"></path><path d="M81.1397 16.8037V25.2056H78.4102V23.8286C77.4843 25.0392 76.0124 25.4904 74.7783 25.4904C72.2152 25.4904 70.6963 23.8766 70.6963 21.8585C70.6963 19.5567 73.2839 17.6816 76.4401 17.6816C77.0577 17.6816 77.7222 17.7296 78.3152 17.9194V17.1365C78.3152 15.9494 77.6273 15.3329 76.2268 15.3329C74.9692 15.3329 73.8535 15.9739 73.1655 16.8048L71.1005 15.2859C72.2632 13.9334 74.2578 12.9841 76.2748 12.9841C79.4309 12.982 81.1397 14.359 81.1397 16.8037ZM78.3152 20.6244V20.1018C77.8406 19.9354 77.3425 19.8884 76.7249 19.8884C74.5884 19.8884 73.4973 20.7428 73.4973 21.787C73.4973 22.6414 74.2332 23.1875 75.3489 23.1875C76.8198 23.1875 78.3152 22.3097 78.3152 20.6244Z"></path><path d="M20.9442 22.4835C25.0934 20.0772 28.8308 15.9963 30.0095 13.0865C30.3444 10.678 30.4127 10.3741 30.4532 7.72454C30.4585 7.35762 30.4361 7.00563 30.402 6.66858C30.1599 10.5596 25.1307 15.4523 18.4771 18.649C10.4507 22.5049 4.42952 23.5427 1.74268 20.602C2.67598 22.4451 3.28822 23.34 4.33779 24.7074C7.43742 27.453 13.9609 26.5346 20.9442 22.4835Z"></path><path d="M17.5418 15.8917C25.1128 12.2396 30.3862 7.04403 29.4668 3.59988C27.9575 0.993033 24.9026 0 21.627 0C11.9175 0 0 6.39979 0 14.5648C0 15.6144 0.231459 16.7877 0.646378 18.0175C2.8607 20.9561 9.63168 19.7071 17.5418 15.8917Z"></path><path d="M16.903 27.4646C11.5784 29.6235 8.53101 28.9355 6.8468 27.5894L6.82227 27.5702C9.42911 30.1707 12.4007 31.9999 15.0065 31.9999C19.5696 31.9999 25.8168 26.4641 28.7735 17.8799C27.1075 20.9784 23.5321 24.7853 16.903 27.4646Z"></path></g><defs><clipPath id="clip0_5309_7721"><path d="M0 0H81.14V32H0z"></path></clipPath></defs></svg>