<svg xmlns="http://www.w3.org/2000/svg" fill="none" viewBox="0 0 104 8">
  <style>
    #logo{fill:#fff}
    #dark{fill:#fff}
    #dark:not(:target),#dark:target + #logo{display:none}
  </style>
  <defs><symbol id="wordmark"><path d="m1.75 1.33 3.54 6.44h4.1l3.5-6.44h1.74V.16H9.38v1.17h1.51l-2.53 4.7-2.58-4.7h1.85V.16H0v1.17h1.75Zm45.19 0V.16h7.03v1.17h-1.75v5.26h1.62c1.5 0 2.5-1 2.5-2.35h1.15v3.53H46.94V6.59h1.77V1.32h-1.77ZM29.88 0c-3.53 0-5.4 1.76-5.4 3.97S26.28 8 29.9 8c3.63 0 5.41-1.79 5.41-4.03S33.41 0 29.88 0Zm-.04 6.79c-1.29-.02-1.85-1.45-1.83-2.86.03-1.47.73-2.75 1.94-2.73 1.2.02 1.84 1.32 1.82 2.8-.03 1.37-.6 2.81-1.93 2.8v-.01Zm39.65-5.46 3.55 6.44h4.1l3.49-6.44h1.75V.16h-5.26v1.17h1.52l-2.54 4.7-2.57-4.7h1.84V.16h-7.63v1.17h1.75ZM97.63 0c-3.53 0-5.4 1.76-5.4 3.97S94.02 8 97.64 8s5.4-1.79 5.4-4.03S101.17 0 97.64 0Zm-.04 6.79c-1.29-.02-1.86-1.45-1.83-2.86.03-1.47.73-2.75 1.93-2.73 1.21.02 1.85 1.32 1.82 2.8-.02 1.37-.6 2.81-1.92 2.8v-.01Z"/></symbol></defs>
  <use id="dark" x="0" y="0" href="#wordmark" />
  <use id="logo" x="0" y="0" href="#wordmark" />
</svg>