<?xml version="1.0" encoding="utf-8"?>
<!-- Generator: Adobe Illustrator 23.0.6, SVG Export Plug-In . SVG Version: 6.00 Build 0)  -->
<svg version="1.1" id="Lager_1" xmlns="http://www.w3.org/2000/svg" xmlns:xlink="http://www.w3.org/1999/xlink" x="0px" y="0px"
	 viewBox="0 0 512 512" style="enable-background:new 0 0 512 512;" xml:space="preserve">
<style type="text/css">
	.st0{fill:#FFFFFF;}
</style>
<path class="st0" d="M246.18,14L67.69,116.07l0.03,65.94c-0.01,0-0.02,0-0.03,0.01v138.11l0.08,0.04v0.09l178.41,102.03
	l178.49-102.07V116.07L246.18,14z M373.17,91.3c-26.46,8.81-59.43,19.84-96.02,19.84c-42.6,0-42.12-43.23-108.82-47.95l77.85-44.51
	L373.17,91.3z M420.4,317.98l-174.22,99.63l-141.5-80.98c6.82-5.63,21.1-16.84,39.24-27.94c14.94-9.14,29.53-16.42,43.38-21.62
	c17.14-6.45,33.15-9.72,47.58-9.72c32.98,0,51.07,10.9,68.57,21.44c16.33,9.83,33.2,20.01,60.88,20.01
	c11.13,0,25.1-4.45,41.54-13.22c5.81-3.1,10.87-6.19,14.58-8.57L420.4,317.98z M420.45,292.14c-10.08,6.68-36.2,22.59-56.13,22.59
	c-55.41,0-63.96-41.45-129.45-41.45c-57.16,0-119.13,48.78-133.96,61.19l-29.1-16.66l-0.04-92.21c8.78-3.58,39.86-15.27,70.78-15.27
	c15.1,0,29.18,2.95,43.05,9.04c12.46,5.47,23.58,12.88,34.34,20.04c10.32,6.87,20.99,13.98,32.68,19.24
	c13.25,5.96,26.46,8.85,40.36,8.85c15.4,0,32.03-2.23,49.43-6.6c13.86-3.49,28.24-8.35,42.75-14.46
	c15.94-6.71,28.39-13.35,35.38-17.34L420.45,292.14z M420.57,224.41c-15.32,8.91-71.29,39.04-127.57,39.04
	c-61,0-82.36-57.17-150.44-57.17c-30.16,0-60.1,10.71-70.78,14.95l-0.02-35.62c42.27-5.26,49.99-11.5,63.7-22.58
	c2.67-2.16,5.45-4.4,8.8-6.9l1.38-1.03c10.04-7.49,20.43-15.24,33.85-20.9c15.07-6.36,32.62-9.46,53.63-9.46
	c23.16,0,46.66,8.65,76.2,28.02c4.28,2.81,8.55,5.76,12.69,8.61c24.6,16.96,50.02,34.49,98.56,40.33V224.41z M311.57,149.36
	c-29.38-19.28-53.93-28.69-78.43-28.69c-49.18,0-70.07,16.39-91.29,32.2c-20.66,15.39-21.35,22.55-70.08,28.65l-0.03-63.06v-0.04
	l85.77-49.05l4.3-2.45c39.46,1.26,56.17,15.55,70.93,28.17c12.1,10.34,23.53,20.12,44.4,20.12c37.12,0,70.32-11.06,97-19.95
	c1.27-0.42,2.52-0.84,3.75-1.25l42.71,24.42v79.18C365.08,190.8,340.49,168.33,311.57,149.36z"/>
<g>
	<path class="st0" d="M57.95,449.67c2.46,1.17,4.31,2.78,5.56,4.84c1.24,2.05,1.86,4.37,1.86,6.95c0,4.16-1.41,7.48-4.23,9.96
		c-2.82,2.49-6.86,3.73-12.11,3.73H37.98v21.51h-4.01v-48.74h15.05C52.51,447.91,55.48,448.5,57.95,449.67z M58.2,469.24
		c2.1-1.75,3.15-4.31,3.15-7.71c0-3.15-1.08-5.66-3.23-7.53c-2.15-1.86-5.19-2.8-9.1-2.8H37.98v20.65h11.04
		C53.04,471.86,56.09,470.98,58.2,469.24z"/>
	<path class="st0" d="M128.37,493.36v3.3h-28.6v-48.74h27.17v3.3h-23.15v17.99h20.29v3.29h-20.29v20.86H128.37z"/>
	<path class="st0" d="M193.53,493.36v3.3h-28.6v-48.74h4.01v45.45h24.59V493.36z"/>
	<path class="st0" d="M252.81,479.89h-20.57l-6.45,16.77h-3.94l19-49.39h3.44l19.07,49.39h-4.09L252.81,479.89z M251.52,476.59
		L242.49,453l-9.03,23.58h18.06V476.59z"/>
	<path class="st0" d="M330.01,474.37h3.87v19.43c-1.72,1.19-4.08,2.16-7.06,2.9c-2.99,0.74-6.41,1.11-10.29,1.11
		c-5.11,0-9.43-1.17-12.94-3.51s-6.14-5.45-7.88-9.32s-2.62-8.12-2.62-12.76c0-4.59,0.91-8.8,2.72-12.65s4.56-6.91,8.24-9.21
		c3.68-2.29,8.17-3.44,13.48-3.44c3.34,0,6.48,0.61,9.39,1.83s5.35,2.95,7.31,5.2l-2.73,2.43c-1.53-1.91-3.57-3.4-6.13-4.48
		c-2.56-1.07-5.18-1.61-7.85-1.61c-4.35,0-8.05,0.96-11.11,2.87s-5.37,4.53-6.95,7.85c-1.58,3.32-2.36,7.09-2.36,11.29
		c0,4.25,0.75,8.07,2.26,11.43c1.51,3.37,3.71,6.01,6.63,7.92c2.91,1.91,6.42,2.87,10.54,2.87c5.83,0,10.32-0.79,13.48-2.36
		L330.01,474.37L330.01,474.37z"/>
	<path class="st0" d="M372.23,447.91h4.01v48.74h-4.01V447.91z"/>
	<path class="st0" d="M423.15,494.47c-3.41-2.27-6-5.34-7.74-9.21c-1.75-3.87-2.62-8.15-2.62-12.83s0.87-8.96,2.62-12.83
		c1.74-3.87,4.32-6.95,7.74-9.25c3.42-2.29,7.56-3.44,12.44-3.44c4.83,0,8.96,1.15,12.4,3.44s6.03,5.36,7.78,9.21
		c1.74,3.85,2.62,8.09,2.62,12.72c0,4.73-0.88,9.03-2.62,12.9c-1.75,3.87-4.34,6.95-7.78,9.25c-3.44,2.29-7.58,3.44-12.4,3.44
		C430.72,497.88,426.57,496.74,423.15,494.47z M445.77,491.64c2.82-1.91,4.95-4.54,6.41-7.89c1.46-3.34,2.19-7.14,2.19-11.39
		c0-4.21-0.73-7.97-2.19-11.29s-3.59-5.95-6.41-7.89s-6.21-2.91-10.18-2.91s-7.36,0.97-10.18,2.91s-4.96,4.57-6.42,7.89
		c-1.46,3.32-2.19,7.08-2.19,11.29c0,4.25,0.73,8.05,2.19,11.39c1.46,3.34,3.6,5.97,6.42,7.89c2.82,1.91,6.21,2.87,10.18,2.87
		S442.95,493.55,445.77,491.64z"/>
</g>
</svg>
