<svg xmlns="http://www.w3.org/2000/svg" xmlns:xlink="http://www.w3.org/1999/xlink" width="389" height="389" viewBox="0 0 389 389">
    <defs>
        <path id="prefix__a" d="M10.956.729c2.539 0 4.704.425 6.495 1.275 1.79.85 3.139 2.02 4.043 3.512.904 1.492 1.356 3.175 1.356 5.048 0 3.018-1.026 5.43-3.078 7.233-2.052 1.805-4.99 2.707-8.816 2.707H2.92v15.611H0V.73h10.956zm0 17.38c2.921 0 5.147-.633 6.677-1.899 1.53-1.266 2.296-3.13 2.296-5.594 0-2.29-.783-4.111-2.348-5.464-1.565-1.353-3.773-2.03-6.625-2.03H2.92V18.11h8.035zM68.39 33.723v2.393H47.576V.73h19.772v2.393h-16.85v13.062H65.26v2.394H50.497v15.144h17.894zm47.106 0v2.393H94.682V.73h2.921v32.993h17.894zm42.829-9.784h-14.973l-4.695 12.177h-2.87L149.613.26h2.505l13.877 35.855h-2.974l-4.695-12.177zm-.94-2.394l-6.573-17.12-6.573 17.12h13.147zm56.81-1.613h2.817v14.103c-1.252.867-2.964 1.57-5.138 2.107-2.174.538-4.67.807-7.487.807-3.72 0-6.86-.85-9.416-2.55-2.556-1.7-4.47-3.955-5.739-6.765-1.27-2.81-1.904-5.898-1.904-9.263 0-3.33.66-6.392 1.982-9.185s3.322-5.022 6-6.687S201.258 0 205.119 0c2.435 0 4.712.442 6.834 1.327s3.895 2.142 5.321 3.773l-1.982 1.77c-1.113-1.389-2.6-2.473-4.46-3.253-1.861-.78-3.766-1.171-5.713-1.171-3.165 0-5.86.694-8.086 2.081-2.226 1.388-3.913 3.288-5.06 5.699-1.149 2.41-1.723 5.143-1.723 8.196 0 3.087.548 5.854 1.644 8.3 1.095 2.446 2.704 4.363 4.826 5.75 2.121 1.388 4.677 2.082 7.668 2.082 4.243 0 7.513-.572 9.808-1.717V19.93zm30.412 16.184V.73h2.922v35.386h-2.922zM290.41 37c-3.547 0-6.564-.824-9.051-2.472-2.487-1.648-4.365-3.877-5.635-6.687-1.269-2.81-1.904-5.915-1.904-9.315 0-3.4.635-6.505 1.904-9.315 1.27-2.81 3.148-5.048 5.635-6.713C283.846.833 286.863 0 290.41 0c3.513 0 6.521.833 9.025 2.498 2.505 1.665 4.391 3.894 5.66 6.687 1.27 2.793 1.905 5.872 1.905 9.237 0 3.435-.635 6.557-1.904 9.367-1.27 2.81-3.156 5.048-5.66 6.713C296.93 36.167 293.922 37 290.41 37zm0-2.446c2.887 0 5.356-.694 7.408-2.081 2.052-1.388 3.609-3.296 4.67-5.725 1.06-2.428 1.59-5.186 1.59-8.274 0-3.053-.53-5.785-1.59-8.196-1.061-2.411-2.618-4.32-4.67-5.725-2.052-1.405-4.521-2.107-7.408-2.107-2.886 0-5.356.702-7.408 2.107-2.052 1.406-3.608 3.314-4.67 5.725-1.06 2.41-1.59 5.143-1.59 8.196 0 3.088.53 5.846 1.59 8.274 1.062 2.429 2.618 4.337 4.67 5.725 2.052 1.387 4.522 2.081 7.408 2.081z"/>
    </defs>
    <g fill="none" fill-rule="evenodd">
        <path fill="#FFF" fill-rule="nonzero" d="M194.5 16L73 86.75l.017 45.704c-.007 0-.01 0-.017.004v95.732l.052.028v.06L194.5 299 316 228.25V86.75L194.5 16zm86.447 53.579c-18.009 6.11-40.451 13.754-65.363 13.754-29.001 0-28.671-29.966-74.077-33.239L194.5 19.24l86.447 50.339zm32.149 157.122L194.5 295.76l-96.317-56.133c4.645-3.902 14.362-11.674 26.708-19.368 10.169-6.336 20.104-11.38 29.53-14.989 11.669-4.467 22.567-6.735 32.388-6.735 22.452 0 34.764 7.556 46.673 14.861 11.113 6.817 22.602 13.87 41.441 13.87 7.574 0 17.085-3.084 28.275-9.162 3.957-2.15 7.396-4.287 9.926-5.943l-.028 14.54zm.031-17.907c-6.861 4.627-24.645 15.66-38.207 15.66-37.717 0-43.536-28.728-88.115-28.728-38.912 0-81.09 33.815-91.186 42.411l-19.805-11.55-.024-63.912c5.978-2.48 27.132-10.587 48.177-10.587 10.276 0 19.865 2.048 29.303 6.265 8.484 3.788 16.054 8.925 23.377 13.891 7.025 4.765 14.285 9.693 22.244 13.333 9.022 4.128 18.013 6.134 27.476 6.134 10.481 0 21.803-1.542 33.646-4.577 9.432-2.42 19.225-5.791 29.098-10.022 10.853-4.648 19.323-9.254 24.085-12.017l-.069 43.699zm.08-46.95c-10.43 6.177-48.525 27.058-86.836 27.058-41.522 0-56.064-39.627-102.404-39.627-20.531 0-40.913 7.426-48.177 10.365l-.01-24.692c28.774-3.643 34.027-7.97 43.362-15.653 1.82-1.5 3.707-3.05 5.989-4.783l.941-.714c6.837-5.193 13.91-10.563 23.044-14.49 10.258-4.411 22.202-6.558 36.508-6.558 15.765 0 31.763 5.992 51.87 19.424 2.912 1.946 5.823 3.99 8.64 5.968 16.748 11.758 34.052 23.91 67.094 27.957l-.021 15.745zm-74.195-52.022c-19.996-13.362-36.71-19.888-53.385-19.888-33.479 0-47.698 11.362-62.143 22.321-14.062 10.67-14.535 15.63-47.705 19.86l-.017-43.71v-.024l58.388-34 2.925-1.7c26.86.87 38.238 10.775 48.285 19.523 8.237 7.17 16.015 13.945 30.224 13.945 25.266 0 47.868-7.666 66.03-13.828.862-.294 1.713-.58 2.554-.867l29.07 16.927v54.88c-37.797-4.711-54.542-20.29-74.226-33.44z"/>
        <g transform="translate(41 322)">
            <mask id="prefix__b" fill="#fff">
                <use xlink:href="#prefix__a"/>
            </mask>
            <path fill="#FFF" fill-rule="nonzero" d="M0 37L308 37 308 0 0 0z" mask="url(#prefix__b)"/>
        </g>
    </g>
</svg>
